<?xml version="1.0" encoding="UTF-8"?>
<svg version="1.1" xmlns="http://www.w3.org/2000/svg" width="1600" height="1600">
<path d="M0 0 C2.05194975 -0.00571591 4.10389634 -0.01268484 6.15583801 -0.02079773 C11.68282894 -0.03860941 17.20966007 -0.03758349 22.73667097 -0.03185534 C27.37092574 -0.02874602 32.00515059 -0.03487521 36.63940108 -0.04089409 C47.58205487 -0.05489837 58.52463052 -0.05341227 69.46728516 -0.04199219 C80.71221592 -0.03051513 91.95690805 -0.04458926 103.20180738 -0.07138866 C112.89831405 -0.09362261 122.59474625 -0.10016576 132.29127657 -0.09431225 C138.06412962 -0.09095983 143.83682978 -0.09324276 149.6096611 -0.11056328 C155.04194498 -0.12615357 160.47387827 -0.12194422 165.90614891 -0.10325813 C167.88527172 -0.09960546 169.86442122 -0.10258209 171.84351921 -0.11314392 C203.1988854 -0.26754072 230.58598601 10.08429174 253.28759766 32.09155273 C287.76205906 66.84785244 282.10009766 112.51468485 282.10009766 159.40405273 C334.24009766 159.40405273 386.38009766 159.40405273 440.10009766 159.40405273 C446.51693027 204.23644985 446.51693027 204.23644985 448.83642578 220.45581055 C448.98423776 221.48940154 449.13204973 222.52299253 449.28434086 223.58790445 C459.77336695 296.93613418 470.24277449 370.2870946 480.60009766 443.65405273 C480.7219748 444.51733673 480.84385195 445.38062072 480.96942234 446.27006483 C489.07471987 503.68504829 497.09769614 561.11134782 505.04559422 618.54833078 C505.80101959 624.00749013 506.55666232 629.46661939 507.3124485 634.9257288 C507.49899898 636.27320459 507.68553641 637.62068218 507.87206078 638.96816158 C510.76903248 659.89482604 513.70180961 680.81626745 516.65501356 701.73506618 C520.34204296 727.85189647 523.99616688 753.97309492 527.61572266 780.09936523 C527.73182428 780.93737372 527.8479259 781.7753822 527.96754575 782.63878489 C529.51788163 793.82986725 531.0665218 805.02118404 532.61463547 816.21257401 C534.49998141 829.84173622 536.38633548 843.470759 538.27264839 857.09978741 C538.89762915 861.61541239 539.52256743 866.13104323 540.14740181 870.64668846 C543.14736905 892.32679942 546.15491691 914.00582426 549.17844009 935.68266296 C549.69466341 939.38446189 550.21044891 943.0863215 550.7260437 946.78820801 C550.97046487 948.54308596 550.97046487 948.54308596 551.21982384 950.33341599 C551.53778701 952.61641547 551.85573107 954.89941762 552.17365456 957.18242264 C553.06862288 963.60718421 553.96652014 970.03152768 554.86664104 976.45556927 C555.405334 980.30501625 555.941306 984.15483822 556.47646523 988.00477791 C556.7188403 989.74407846 556.96239838 991.48321465 557.20726585 993.22216606 C557.53459397 995.54743002 557.8577913 997.87323131 558.17993164 1000.19921875 C558.35926743 1001.48167984 558.53860321 1002.76414093 558.72337341 1004.08546448 C559.10009766 1007.40405273 559.10009766 1007.40405273 559.10009766 1012.40405273 C245.60009766 1012.40405273 -67.89990234 1012.40405273 -390.89990234 1012.40405273 C-389.77491439 995.52923337 -389.77491439 995.52923337 -388.90698242 989.46707153 C-388.81197274 988.7924991 -388.71696305 988.11792668 -388.61907429 987.42291266 C-388.30775943 985.22199688 -387.98866199 983.02229039 -387.66943359 980.82250977 C-387.43986931 979.2111628 -387.21080272 977.59974486 -386.98218632 975.98826313 C-386.3619221 971.62591834 -385.73485331 967.26457626 -385.10658383 962.90337825 C-384.43607999 958.24005676 -383.77215871 953.57579795 -383.10752869 948.91163635 C-381.97001151 940.93469197 -380.82871567 932.95829622 -379.68478394 924.98226929 C-377.88661968 912.44378969 -376.0966757 899.90414389 -374.30834961 887.36425781 C-373.85858737 884.21083538 -373.40881239 881.05741476 -372.95903486 877.9039945 C-372.65972787 875.80552133 -372.36043104 873.70704671 -372.06114441 871.60857064 C-371.0151325 864.27483047 -369.96815308 856.94122882 -368.92079163 849.60768127 C-364.35430831 817.63020872 -359.82413976 785.64785396 -355.33776093 753.65903854 C-354.8352747 750.07638297 -354.33249158 746.49376917 -353.82965088 742.91116333 C-348.43580046 704.47560258 -343.08534936 666.03400603 -337.73575211 627.59226608 C-332.70470363 591.44060804 -327.64464272 555.29326254 -322.52490234 519.15405273 C-322.37507023 518.09641346 -322.22523811 517.03877419 -322.07086563 515.94908524 C-319.85794902 500.33054485 -317.6412532 484.71254126 -315.42386627 469.09463501 C-314.50154356 462.59818042 -313.57937258 456.10170429 -312.65722656 449.60522461 C-312.56163322 448.93177521 -312.46603988 448.25832582 -312.36754978 447.56446886 C-310.36980256 433.49032667 -308.37268652 419.41609495 -306.37585467 405.34182286 C-305.768356 401.06009647 -305.16072361 396.77838907 -304.55298513 392.49669671 C-300.15045219 361.47949542 -295.75957872 330.460755 -291.41552734 299.43530273 C-291.23584349 298.15243881 -291.05615963 296.86957489 -290.87103081 295.5478363 C-289.17319099 283.42579519 -287.4766875 271.30357281 -285.78729534 259.18035126 C-282.45004481 235.24144448 -279.0367954 211.31515669 -275.50537109 187.40405273 C-275.33046961 186.21610107 -275.15556812 185.02814941 -274.97536659 183.80419922 C-274.48270738 180.4621375 -273.98715135 177.12052006 -273.49047852 173.77905273 C-273.34388731 172.78377563 -273.1972961 171.78849854 -273.04626274 170.76306152 C-272.90947672 169.847948 -272.7726907 168.93283447 -272.63175964 167.98999023 C-272.51391711 167.19641113 -272.39607458 166.40283203 -272.27466106 165.58520508 C-271.91723955 163.50495791 -271.41182941 161.45176099 -270.89990234 159.40405273 C-219.08990234 159.40405273 -167.27990234 159.40405273 -113.89990234 159.40405273 C-113.89990234 139.60405273 -113.89990234 119.80405273 -113.89990234 99.40405273 C-110.65469535 75.06500025 -103.88476855 55.14599857 -87.89990234 36.40405273 C-86.99498047 35.28063477 -86.99498047 35.28063477 -86.07177734 34.13452148 C-64.43166359 8.17547746 -32.3887195 -0.08236449 0 0 Z M-40.89990234 71.40405273 C-61.96108388 97.88644957 -52.89990234 121.47531495 -52.89990234 159.40405273 C37.85009766 159.40405273 128.60009766 159.40405273 222.10009766 159.40405273 C226.54014706 111.66447361 226.54014706 111.66447361 208.55322266 70.66577148 C196.194838 59.27165569 182.48138602 58.960815 166.59643555 59.01586914 C164.6226828 59.01179924 162.64893234 59.00645501 160.67518616 58.99993896 C155.33630979 58.98630855 149.99760811 58.9915466 144.65872884 59.00107622 C139.05848692 59.00869605 133.4582595 59.00162067 127.85801697 58.99691772 C118.45406421 58.99146649 109.05018223 58.99863475 99.64624023 59.01293945 C88.79213728 59.02925996 77.93820345 59.02397921 67.0841046 59.00746024 C57.74706329 58.99382171 48.41007274 58.99193742 39.07302469 58.99977624 C33.50433898 59.00444036 27.93573261 59.0051125 22.36705208 58.99516678 C17.12943466 58.9864651 11.89203406 58.99257737 6.65443993 59.00984955 C4.7384998 59.01379753 2.82254125 59.01270948 0.90660858 59.00606155 C-14.4543527 58.95769886 -29.24545241 60.05629885 -40.89990234 71.40405273 Z M-204.89990234 234.40405273 C-207.3297332 247.18230259 -207.3297332 247.18230259 -209.34423828 260.00683594 C-209.46433258 260.8533522 -209.58442688 261.69986847 -209.7081604 262.57203674 C-210.10363303 265.36583015 -210.49396334 268.16031561 -210.88427734 270.95483398 C-211.17450737 273.0127554 -211.46506632 275.07063044 -211.75592041 277.12846375 C-212.38807953 281.60617833 -213.01792283 286.08421049 -213.64599609 290.5625 C-214.68006337 297.93533624 -215.7194135 305.30742276 -216.75927734 312.67944336 C-218.30630447 323.65066475 -219.85090944 334.62222452 -221.39404297 345.59399414 C-225.40517039 374.11217643 -229.42952287 402.62849568 -233.45263672 431.14498901 C-234.42484685 438.03617513 -235.39683212 444.92739292 -236.36865234 451.81863403 C-244.25163364 507.71632619 -252.17486903 563.60822346 -260.12030029 619.49707031 C-261.61230445 629.99205412 -263.10397951 640.48708466 -264.59521484 650.98217773 C-264.71993967 651.85996132 -264.84466449 652.7377449 -264.97316885 653.64212799 C-269.24179654 683.6852476 -273.49403203 713.73067035 -277.73858833 743.77719975 C-278.20333915 747.06707434 -278.66812527 750.35694395 -279.13291931 753.64681244 C-281.99468883 773.90309875 -284.85579269 794.15947874 -287.71363103 814.41632009 C-288.83060638 822.33337927 -289.94828115 830.25033953 -291.06642878 838.16723323 C-291.83115296 843.58210408 -292.59501617 848.99709528 -293.35811818 854.41219497 C-293.82979036 857.75770328 -294.3023122 861.10309118 -294.77508664 864.44844389 C-295.00415661 866.07027197 -295.23292687 867.69214242 -295.46138453 869.31405687 C-296.79286188 878.76310684 -298.16307514 888.20517602 -299.58465576 897.64111328 C-299.86597152 899.51968523 -300.14717865 901.39827344 -300.42827415 903.27687836 C-300.96216363 906.84449207 -301.50539725 910.41050699 -302.05410194 913.97586823 C-302.29842845 915.60368945 -302.5424058 917.23156314 -302.78598022 918.85949707 C-302.89927225 919.5780786 -303.01256427 920.29666014 -303.12928939 921.03701687 C-303.95746765 926.6579694 -303.89990234 931.55996662 -303.89990234 937.40405273 C-47.81990234 937.40405273 208.26009766 937.40405273 472.10009766 937.40405273 C472.10009766 931.80286599 472.08153553 927.14851542 471.31440735 921.75273132 C471.13969878 920.50201875 470.96499022 919.25130617 470.78498745 917.96269321 C470.58846141 916.60157724 470.39181768 915.24047825 470.19506836 913.87939453 C469.98875578 912.41959785 469.78299462 910.95972316 469.57773685 909.49977779 C469.01828062 905.53180043 468.4511367 901.56495573 467.88263845 897.59826517 C467.27901205 893.37681104 466.68259364 889.1543384 466.08535767 884.93197632 C465.06544734 877.72825909 464.04111103 870.52518305 463.01364136 863.32254028 C461.54035426 852.99447538 460.07415664 842.66541389 458.60989726 832.33606565 C456.38122793 816.61498153 454.14819626 800.89452177 451.91162109 785.17456055 C448.85683135 763.70298288 445.81650735 742.22937797 442.78445435 720.75457764 C442.15823746 716.31979031 441.53115059 711.8851265 440.90377903 707.4505024 C438.2111344 688.41657351 435.53413837 669.38053368 432.87744141 650.34155273 C432.59903478 648.3466993 432.32062289 646.3518466 432.04220581 644.35699463 C431.90315008 643.3606538 431.76409435 642.36431297 431.62082481 641.33778 C425.3992024 596.761039 419.08516505 552.19820885 412.70434952 507.64398956 C403.98216717 446.73982201 395.37279003 385.81986816 386.77824545 324.89757204 C386.37912599 322.06844545 385.97998716 319.23932159 385.58084488 316.41019821 C383.48600706 301.56163699 383.48600706 301.56163699 382.57459641 295.09593582 C382.40134928 293.86690214 382.40134928 293.86690214 382.22460222 292.61303949 C381.99617066 290.9924763 381.76775245 289.37191123 381.53934813 287.7513442 C380.99786301 283.91027143 380.45572778 280.06929268 379.91201401 276.2285347 C379.70591705 274.77254526 379.4998229 273.31655543 379.29373169 271.86056519 C379.1439884 270.80288256 379.1439884 270.80288256 378.99122 269.72383261 C378.39239512 265.48866628 377.80007896 261.25264729 377.21296054 257.01584262 C376.93243686 254.99421736 376.65017702 252.97284307 376.36723995 250.9515543 C376.02337337 248.492594 375.68266863 246.03318873 375.3456583 243.57327938 C375.19537143 242.5042365 375.04508455 241.43519361 374.89024353 240.33375549 C374.7609442 239.40002389 374.63164488 238.46629229 374.49842739 237.50426579 C374.30810181 235.42440356 374.30810181 235.42440356 373.10009766 234.40405273 C370.45724513 234.30623754 367.84054013 234.27411006 365.19725037 234.28379822 C363.94027638 234.28251658 363.94027638 234.28251658 362.65790898 234.28120905 C359.82798906 234.27955168 356.99812741 234.28507981 354.16821289 234.29052734 C352.14838665 234.29080919 350.12856031 234.29065154 348.10873413 234.29008484 C342.6068938 234.28979675 337.10507507 234.29569532 331.60323977 234.3026588 C325.86033661 234.30889043 320.117433 234.30949598 314.37452698 234.3106842 C303.49122873 234.31379808 292.60794047 234.32201223 281.72464663 234.33203369 C269.33791969 234.34319308 256.95119229 234.34870484 244.56446159 234.35372913 C219.07633473 234.3641948 193.58821675 234.38179533 168.10009766 234.40405273 C166.94839895 238.81175071 165.8095872 243.22251375 164.68212891 247.63647461 C164.29755616 249.13475971 163.90959558 250.63217978 163.51806641 252.12866211 C162.95293964 254.29113699 162.40043813 256.4565238 161.85009766 258.62280273 C161.67510742 259.28147339 161.50011719 259.94014404 161.31982422 260.61877441 C160.13047684 265.37167696 159.82963274 269.54483042 160.10009766 274.40405273 C161.5128814 276.43492227 161.5128814 276.43492227 163.85009766 277.65405273 C164.76017578 278.21995117 165.67025391 278.78584961 166.60791016 279.36889648 C167.77181555 280.04755142 168.93589705 280.72590435 170.10009766 281.40405273 C171.61966186 282.31980983 173.13778095 283.23796732 174.65478516 284.15795898 C178.07473984 286.22479534 181.50222075 288.27829836 184.93603516 290.32202148 C189.75834986 293.19606319 194.56785216 296.08877261 199.35009766 299.02905273 C200.37804443 299.64937378 200.37804443 299.64937378 201.42675781 300.28222656 C203.01990401 301.26783809 204.56617226 302.32859108 206.10009766 303.40405273 C206.10009766 304.06405273 206.10009766 304.72405273 206.10009766 305.40405273 C203.79493684 306.89175842 201.49082238 308.25236012 199.10009766 309.59155273 C191.43135378 313.98917753 183.90277521 318.58398186 176.41259766 323.27905273 C174.87249023 324.24234497 174.87249023 324.24234497 173.30126953 325.22509766 C168.52346771 328.22224707 163.76844597 331.23880124 159.10009766 334.40405273 C160.59530238 346.36994632 163.44747185 357.99814183 166.22509766 369.71655273 C166.69820885 371.72881562 167.17086865 373.74118468 167.64306641 375.75366211 C168.79021181 380.63836493 169.94344865 385.52159194 171.10009766 390.40405273 C163.97408267 389.26021219 156.98618935 387.69871045 149.97900391 385.98608398 C149.06645844 385.76371063 148.15391296 385.54133728 147.2137146 385.31222534 C143.3882796 384.37792086 139.56372805 383.44034763 135.74194336 382.49121094 C132.92708609 381.79372208 130.10961175 381.10780218 127.29150391 380.42358398 C126.42795792 380.20595901 125.56441193 379.98833405 124.67469788 379.76411438 C123.86963303 379.57028671 123.06456818 379.37645905 122.23510742 379.17675781 C121.53104263 379.00292068 120.82697784 378.82908356 120.10157776 378.64997864 C117.80980581 378.36838399 116.27103421 378.64180014 114.10009766 379.40405273 C112.64157384 380.89729934 112.64157384 380.89729934 111.47119141 382.84155273 C110.99891113 383.5635083 110.52663086 384.28546387 110.04003906 385.02929688 C109.5442334 385.81296631 109.04842773 386.59663574 108.53759766 387.40405273 C108.01601074 388.20770264 107.49442383 389.01135254 106.95703125 389.83935547 C105.32756989 392.35432954 103.71376776 394.87892609 102.10009766 397.40405273 C101.09495693 398.95832478 100.08849372 400.51174256 99.08056641 402.06420898 C97.22275067 404.92612243 95.37173984 407.79222946 93.52587891 410.66186523 C91.09315429 414.43348729 88.58660015 418.15165056 86.02587891 421.83764648 C84.93049711 423.38775854 84.93049711 423.38775854 85.10009766 425.40405273 C82.45609877 422.98084603 80.64770494 420.33231701 78.72900391 417.31030273 C78.07738281 416.28799561 77.42576172 415.26568848 76.75439453 414.21240234 C75.71895508 412.57476929 75.71895508 412.57476929 74.66259766 410.90405273 C73.95554687 409.79231689 73.24849609 408.68058105 72.52001953 407.53515625 C70.37483082 404.16140898 68.23708609 400.78300035 66.10009766 397.40405273 C65.46571777 396.40229004 64.83133789 395.40052734 64.17773438 394.3684082 C60.8112094 389.05154492 57.45194119 383.7301829 54.10009766 378.40405273 C47.43060171 379.07447602 41.09780076 380.50421992 34.60009766 382.12670898 C33.52381104 382.39164658 32.44752441 382.65658417 31.33862305 382.92955017 C27.92471074 383.77094956 24.5124003 384.6186516 21.10009766 385.46655273 C18.77598208 386.04053836 16.45176434 386.61411048 14.12744141 387.18725586 C8.45046892 388.58807094 2.77479583 389.99405437 -2.89990234 391.40405273 C-2.74956543 390.77844452 -2.59922852 390.1528363 -2.44433594 389.50827026 C-0.87907772 382.98880119 0.67671007 376.46712399 2.22705078 369.9440918 C2.80666083 367.51089658 3.38867236 365.07827211 3.97314453 362.64624023 C4.81347555 359.14771927 5.6451112 355.64722778 6.47509766 352.14624023 C6.73758301 351.0616452 7.00006836 349.97705017 7.27050781 348.85958862 C7.63088135 347.32868088 7.63088135 347.32868088 7.99853516 345.7668457 C8.21171387 344.87415985 8.42489258 343.981474 8.64453125 343.06173706 C9.15236887 340.09911281 9.2962144 337.40396133 9.10009766 334.40405273 C7.31742003 332.38488487 7.31742003 332.38488487 4.77197266 330.92749023 C3.3981543 330.04722168 3.3981543 330.04722168 1.99658203 329.14916992 C1.04074219 328.57328125 0.08490234 327.99739258 -0.89990234 327.40405273 C-1.77839844 326.86683594 -2.65689453 326.32961914 -3.56201172 325.77612305 C-6.24247762 324.16565781 -8.94218212 322.59320957 -11.64990234 321.02905273 C-19.38213949 316.52206523 -26.9676966 311.87802235 -34.41552734 306.91577148 C-36.69996728 305.2307797 -36.69996728 305.2307797 -38.89990234 305.40405273 C-38.89990234 304.74405273 -38.89990234 304.08405273 -38.89990234 303.40405273 C-37.92150391 303.07147461 -37.92150391 303.07147461 -36.92333984 302.73217773 C-32.84619181 300.94118248 -29.25809487 298.56875643 -25.52490234 296.15405273 C-16.86525712 290.60892422 -8.10680403 285.24309805 0.70898438 279.94995117 C1.64371582 279.38566406 2.57844727 278.82137695 3.54150391 278.23999023 C4.37367432 277.74031738 5.20584473 277.24064453 6.06323242 276.72583008 C8.2093772 275.43360134 8.2093772 275.43360134 10.10009766 273.40405273 C7.71346823 260.27759091 4.33592649 247.34736807 1.10009766 234.40405273 C-66.87990234 234.40405273 -134.85990234 234.40405273 -204.89990234 234.40405273 Z " fill="#1577A8" transform="translate(717.89990234375,301.595947265625)"/>
<path d="M0 0 C144.54 0 289.08 0 438 0 C438 24.75 438 49.5 438 75 C409.26019972 76.14959201 409.26019972 76.14959201 396.02514648 76.11352539 C394.48020715 76.11321724 392.93526768 76.11335562 391.39032841 76.11389065 C387.34751949 76.11411136 383.30474172 76.10842506 379.26194 76.10128021 C375.43247914 76.09547565 371.60302488 76.09531127 367.77355957 76.09460449 C356.66153577 76.08941032 345.54951746 76.07544933 334.4375 76.0625 C309.543125 76.041875 284.64875 76.02125 259 76 C258.67 171.37 258.34 266.74 258 365 C232.26 365 206.52 365 180 365 C180 269.3 180 173.6 180 75 C144.36 75.495 144.36 75.495 108 76 C89.83653639 76.07934701 71.67641545 76.14524098 53.51330566 76.12695312 C48.74381655 76.12425364 43.9743445 76.12925075 39.20485783 76.13394356 C34.56149454 76.13752562 29.91814194 76.13642569 25.27477837 76.13381577 C23.09018384 76.13315203 20.90558832 76.13395542 18.72099495 76.13629532 C15.74503997 76.1388075 12.76916202 76.13501319 9.79321289 76.12939453 C8.46748512 76.13243088 8.46748512 76.13243088 7.11497498 76.13552856 C1.11431491 76.11431491 1.11431491 76.11431491 0 75 C0 50.25 0 25.5 0 0 Z " fill="#06A1D6" transform="translate(583,746)"/>
<path d="M0 0 C8.11295879 3.55708561 12.41953435 12.3275736 16 20 C16 20.66 16 21.32 16 22 C16.66 22 17.32 22 18 22 C19.4088974 23.84037223 20.72840298 25.74971704 22 27.6875 C22.70125 28.74324219 23.4025 29.79898438 24.125 30.88671875 C25.74144156 33.57068526 26.86232703 36.0999497 28 39 C28.66 39.66 29.32 40.32 30 41 C30.70710678 42.64991582 31.37943989 44.31562256 32 46 C44.85249835 45.38209143 57.31805385 41.26691686 69.62109375 37.75097656 C84.17515802 33.62420374 84.17515802 33.62420374 90 34 C89.41632611 40.30367803 87.95928381 45.98660063 86 52 C85.34 52 84.68 52 84 52 C83.87044922 52.82564453 83.87044922 52.82564453 83.73828125 53.66796875 C82.91592936 58.53417948 81.93843276 63.33436505 80.75390625 68.125 C80.41588989 69.49555542 80.41588989 69.49555542 80.07104492 70.89379883 C79.61445601 72.72640035 79.15003344 74.55707167 78.67700195 76.38549805 C78.04745507 78.91520886 77.49359305 81.4404667 77 84 C76.78452515 85.10106079 76.78452515 85.10106079 76.56469727 86.22436523 C76.2112059 88.57276971 76.2112059 88.57276971 77 92 C79.37305519 94.50910291 82.18150625 96.02975044 85.1875 97.6875 C86.9246492 98.71195131 88.66162173 99.73670226 90.3984375 100.76171875 C91.31206055 101.28685059 92.22568359 101.81198242 93.16699219 102.35302734 C97.9462359 105.13144669 102.62151048 108.07596786 107.3125 111 C109.03764414 112.06268879 110.76289837 113.12519889 112.48828125 114.1875 C116.04341395 116.3879804 119.5405178 118.65229267 123 121 C121.59627712 125.21116865 118.63064548 126.20063176 114.9375 128.25 C107.25704693 132.63102059 99.73558265 137.23153 92.25 141.9375 C90.21355523 143.21746949 88.17709764 144.4974186 86.140625 145.77734375 C85.26954102 146.32640381 84.39845703 146.87546387 83.50097656 147.44116211 C81.01706513 148.98936344 78.51414227 150.50148782 76 152 C77.49520472 163.96589358 80.34737419 175.59408909 83.125 187.3125 C83.5981112 189.32476288 84.07077099 191.33713195 84.54296875 193.34960938 C85.69011416 198.2343122 86.843351 203.1175392 88 208 C84.63135518 209.12255693 82.43819562 208.85703189 79.01953125 207.99609375 C78.03170654 207.7525415 77.04388184 207.50898926 76.02612305 207.25805664 C74.96562744 206.98727295 73.90513184 206.71648926 72.8125 206.4375 C71.71784424 206.16736084 70.62318848 205.89722168 69.49536133 205.61889648 C64.80820456 204.46189143 60.12658723 203.28311654 55.44433594 202.10644531 C52.0272026 201.25097514 48.60748503 200.40648394 45.1875 199.5625 C44.12700439 199.29171631 43.06650879 199.02093262 41.97387695 198.74194336 C40.98605225 198.49839111 39.99822754 198.25483887 38.98046875 198.00390625 C38.11317139 197.78549072 37.24587402 197.5670752 36.35229492 197.34204102 C33.86428354 196.98026583 32.34695187 197.1371051 30 198 C28.63728107 199.39581678 28.63728107 199.39581678 27.58984375 201.21875 C27.1628418 201.89534668 26.73583984 202.57194336 26.29589844 203.26904297 C25.84762695 204.00525879 25.39935547 204.74147461 24.9375 205.5 C23.96258621 207.05490488 22.98731549 208.60958603 22.01171875 210.1640625 C21.51462402 210.96489258 21.0175293 211.76572266 20.50537109 212.59082031 C18.135374 216.38373814 15.69031138 220.12710612 13.25 223.875 C9.13338154 230.22903773 5.04861092 236.60236568 1 243 C-3.36073309 241.5464223 -4.54877418 238.17111874 -6.75 234.375 C-11.92919225 225.64569222 -17.42173873 217.1540144 -23.04785156 208.70654297 C-23.96969238 207.31072998 -23.96969238 207.31072998 -24.91015625 205.88671875 C-25.45808838 205.06389404 -26.00602051 204.24106934 -26.57055664 203.39331055 C-28.00636362 200.98934542 -28.99038347 198.60582599 -30 196 C-30.98265839 196.24429749 -30.98265839 196.24429749 -31.98516846 196.49353027 C-38.79684269 198.18600555 -45.61009937 199.87199165 -52.42431641 201.55419922 C-54.96802372 202.1830647 -57.51132129 202.81358995 -60.05419922 203.44580078 C-63.70694522 204.35364284 -67.3611177 205.25552791 -71.015625 206.15625 C-72.72362274 206.5827887 -72.72362274 206.5827887 -74.46612549 207.01794434 C-75.52692322 207.27821411 -76.58772095 207.53848389 -77.68066406 207.80664062 C-78.61332092 208.03758423 -79.54597778 208.26852783 -80.50689697 208.50646973 C-83 209 -83 209 -87 209 C-86.35101471 202.86502625 -85.1681596 197.01466914 -83.71484375 191.0234375 C-83.26224677 189.1172167 -82.80977659 187.2109658 -82.35742188 185.3046875 C-81.64643948 182.33081722 -80.93328427 179.35749092 -80.2175293 176.38476562 C-79.52338212 173.49482732 -78.83745033 170.6030302 -78.15234375 167.7109375 C-77.93674301 166.82642914 -77.72114227 165.94192078 -77.49900818 165.03060913 C-75.88461202 158.57550348 -75.88461202 158.57550348 -76 152 C-77.82202457 150.02822911 -77.82202457 150.02822911 -80.44140625 148.625 C-81.40755859 148.03871826 -82.37371094 147.45243652 -83.36914062 146.84838867 C-84.42294922 146.23842041 -85.47675781 145.62845215 -86.5625 145 C-87.63048828 144.35716064 -88.69847656 143.71432129 -89.79882812 143.05200195 C-93.18803162 141.01524968 -96.59330016 139.00732122 -100 137 C-103.30964896 135.02449525 -106.6142889 133.0411869 -109.91381836 131.04882812 C-111.9495687 129.82103281 -113.9906717 128.60206327 -116.03735352 127.39257812 C-117.41105103 126.56983398 -117.41105103 126.56983398 -118.8125 125.73046875 C-120.02873047 125.00960083 -120.02873047 125.00960083 -121.26953125 124.27416992 C-121.84058594 123.85369385 -122.41164063 123.43321777 -123 123 C-123 122.34 -123 121.68 -123 121 C-121.48486328 119.83349609 -121.48486328 119.83349609 -119.3203125 118.5234375 C-118.09779785 117.77598267 -118.09779785 117.77598267 -116.85058594 117.01342773 C-115.95114258 116.47274658 -115.05169922 115.93206543 -114.125 115.375 C-113.20493164 114.81176025 -112.28486328 114.24852051 -111.33691406 113.66821289 C-106.46236226 110.68702514 -101.56838538 107.73904065 -96.66366577 104.80786133 C-94.27350606 103.37647852 -91.8890845 101.93569896 -89.50531006 100.49371338 C-88.33684551 99.79061943 -87.16548814 99.0923104 -85.99127197 98.39886475 C-84.33650488 97.42158926 -82.69145547 96.42791592 -81.046875 95.43359375 C-80.09651367 94.86697021 -79.14615234 94.30034668 -78.16699219 93.71655273 C-75.66496938 91.73461015 -75.44125112 91.072995 -75 88 C-75.24849734 85.87856686 -75.24849734 85.87856686 -75.86450195 83.68139648 C-76.07835037 82.83629013 -76.29219879 81.99118378 -76.51252747 81.12046814 C-76.75202621 80.21317459 -76.99152496 79.30588104 -77.23828125 78.37109375 C-77.47910934 77.42621597 -77.71993744 76.4813382 -77.96806335 75.50782776 C-78.740669 72.48202662 -79.52585293 69.45967822 -80.3125 66.4375 C-81.0864963 63.43986526 -81.85770208 60.4415611 -82.62480164 57.44215393 C-83.10229428 55.57767622 -83.5839558 53.71425902 -84.07063293 51.85215759 C-85.67747843 45.61221131 -86.92369682 39.35241311 -88 33 C-82.44882987 34.09459693 -76.91441639 35.23377368 -71.39282227 36.46923828 C-69.03901139 36.99134672 -66.68235112 37.49780743 -64.32421875 38 C-62.77864583 38.33333333 -61.23307292 38.66666667 -59.6875 39 C-58.90310547 39.165 -58.11871094 39.33 -57.31054688 39.5 C-53.56646319 40.31434615 -50.39451048 41.18205105 -47 43 C-45.40863178 43.40783809 -43.80218908 43.75990472 -42.1875 44.0625 C-40.97126953 44.29646484 -40.97126953 44.29646484 -39.73046875 44.53515625 C-36.49497863 45.08597646 -33.25065531 45.5481869 -30 46 C-29.39671875 45.05898438 -28.7934375 44.11796875 -28.171875 43.1484375 C-27.36461086 41.89060733 -26.55731764 40.63279583 -25.75 39.375 C-25.35425781 38.75753906 -24.95851563 38.14007812 -24.55078125 37.50390625 C-22.66859723 34.57263605 -20.77088017 31.66286654 -18.8125 28.78125 C-17.36652269 26.56242274 -16.2272025 24.56800624 -15.25 22.125 C-14.8375 21.09375 -14.425 20.0625 -14 19 C-13.34 19 -12.68 19 -12 19 C-11.731875 18.278125 -11.46375 17.55625 -11.1875 16.8125 C-9.14405836 11.9727698 -6.68786216 8.68786216 -3 5 C-1.95650161 3.36021682 -0.94392019 1.69905634 0 0 Z " fill="#FE5B5C" transform="translate(802,484)"/>
<path d="M0 0 C31.35 0 62.7 0 95 0 C90.28772974 8.83550675 85.60301467 17.53623612 80.5 26.125 C72.99527106 38.86954037 65.88266686 51.81695834 58.77099609 64.78271484 C55.22969995 71.21602068 51.62171068 77.61170477 48 84 C45.24282618 81.54248541 43.67630473 78.87739118 41.91796875 75.64453125 C41.32282471 74.55938232 40.72768066 73.4742334 40.11450195 72.35620117 C39.80082672 71.77921478 39.48715149 71.20222839 39.16397095 70.60775757 C37.49355579 67.53667239 35.80585433 64.47514019 34.1171875 61.4140625 C33.77297256 60.78966782 33.42875763 60.16527313 33.07411194 59.5219574 C29.75367318 53.51809861 26.29660146 47.59770608 22.8125 41.6875 C18.2075661 33.8578771 13.7214646 25.97625715 9.375 18 C8.8900708 17.11014404 8.4051416 16.22028809 7.90551758 15.3034668 C5.16659623 10.24316325 2.57652155 5.15304309 0 0 Z " fill="#02ACE2" transform="translate(755,1131)"/>
<path d="M0 0 C9.00160772 4.50080386 9.00160772 4.50080386 12.4609375 6.48828125 C13.24815186 6.93921143 14.03536621 7.3901416 14.84643555 7.85473633 C16.09807495 8.57632935 16.09807495 8.57632935 17.375 9.3125 C18.27710205 9.83030029 19.1792041 10.34810059 20.10864258 10.8815918 C23.07401524 12.58498575 26.03723234 14.29207949 29 16 C30.0204541 16.5878125 31.0409082 17.175625 32.09228516 17.78125 C38.58227916 21.52032462 45.06926326 25.26459316 51.55517578 29.01074219 C56.99092802 32.14968685 62.42818335 35.28602512 67.86538696 38.42245483 C70.65250838 40.03022544 73.43953154 41.63816635 76.2265625 43.24609375 C77.15033691 43.77904053 78.07411133 44.3119873 79.02587891 44.86108398 C79.67733887 45.23692627 80.32879883 45.61276855 81 46 C81 46.66 81 47.32 81 48 C80.36835937 48.35078613 79.73671875 48.70157227 79.0859375 49.06298828 C67.39227575 55.56484956 55.73080594 62.10887385 44.1875 68.875 C35.68636127 73.85303496 27.17718664 78.81625653 18.6366272 83.72637939 C17.38818532 84.44510032 16.14075114 85.16557477 14.89437866 85.88787842 C13.15623713 86.89475929 11.41413347 87.89479103 9.671875 88.89453125 C8.6725293 89.47050049 7.67318359 90.04646973 6.64355469 90.63989258 C4 92 4 92 0 93 C0 62.31 0 31.62 0 0 Z " fill="#00D4FE" transform="translate(1023,851)"/>
<path d="M0 0 C0 30.36 0 60.72 0 92 C-4.30841724 90.56386092 -7.21065872 89.47293907 -10.95703125 87.234375 C-11.89160156 86.68136719 -12.82617188 86.12835937 -13.7890625 85.55859375 C-14.78679687 84.96175781 -15.78453125 84.36492187 -16.8125 83.75 C-25.31635855 78.72262707 -33.86446107 73.7976729 -42.5 69 C-51.19070239 64.1594697 -59.83684133 59.24893879 -68.4375 54.25 C-69.46875 53.65316406 -70.5 53.05632813 -71.5625 52.44140625 C-72.50996094 51.88839844 -73.45742188 51.33539062 -74.43359375 50.765625 C-75.26947021 50.27868164 -76.10534668 49.79173828 -76.96655273 49.29003906 C-79 48 -79 48 -81 46 C-74.66498302 41.63142341 -68.1628945 37.73373741 -61.4375 34 C-53.24399351 29.41206117 -45.10010155 24.7508744 -37 20 C-28.73435661 15.16233755 -20.44878655 10.36202928 -12.125 5.625 C-11.13757813 5.05910156 -10.15015625 4.49320313 -9.1328125 3.91015625 C-8.2253125 3.39582031 -7.3178125 2.88148438 -6.3828125 2.3515625 C-5.58246582 1.89604004 -4.78211914 1.44051758 -3.95751953 0.97119141 C-2 0 -2 0 0 0 Z " fill="#301946" transform="translate(581,852)"/>
<path d="M0 0 C0.33 0 0.66 0 1 0 C1.09950874 9.15480413 1.02928014 18.2371632 0.4375 27.375 C-0.23060042 38.20388491 0.26574915 48.96798633 0.74609375 59.796875 C0.78847168 60.87001953 0.83084961 61.94316406 0.87451172 63.04882812 C0.95179655 64.86637489 1.04822059 66.68336986 1.17626953 68.49804688 C1.28515625 70.640625 1.28515625 70.640625 1 74 C-1.24704119 76.33045325 -2.65957333 76.95454587 -5.88164902 77.38476086 C-7.00623646 77.38936982 -8.1308239 77.39397879 -9.28948975 77.39872742 C-10.58235397 77.41126556 -11.8752182 77.42380371 -13.20726013 77.4367218 C-14.63784815 77.43554777 -16.06843596 77.43408862 -17.49902344 77.43237305 C-19.00699162 77.44139011 -20.51495245 77.45171719 -22.02290344 77.46325684 C-26.11553056 77.49085974 -30.20801873 77.50011579 -34.30072689 77.50611091 C-38.57824661 77.51548604 -42.8556622 77.54168871 -47.13311768 77.56611633 C-55.23259556 77.60980876 -63.33205327 77.63833885 -71.43161321 77.66143972 C-80.65287208 77.6884767 -89.87402633 77.73238912 -99.09521055 77.77772844 C-118.0634185 77.870614 -137.03165411 77.94227681 -156 78 C-157.69731531 82.04290778 -158.51240942 85.63625627 -159.0625 90 C-159.14556396 90.6492041 -159.22862793 91.2984082 -159.31420898 91.96728516 C-159.99703703 97.4930224 -160.42259804 103.02807321 -160.75390625 108.5859375 C-161 111 -161 111 -162 112 C-162.20837419 113.82906235 -162.36749659 115.66388134 -162.5 117.5 C-162.88888889 122.88888889 -162.88888889 122.88888889 -164 124 C-164.38265482 126.2630445 -164.70482094 128.5363927 -165 130.8125 C-165.08757568 131.4823291 -165.17515137 132.1521582 -165.26538086 132.84228516 C-165.94052035 138.15153677 -166.40495609 143.46361361 -166.75390625 148.8046875 C-167 151 -167 151 -168 152 C-168.20983279 154.14204311 -168.36823385 156.28924113 -168.5 158.4375 C-168.88986233 164.77972466 -168.88986233 164.77972466 -170 167 C-170.27783062 168.76262438 -170.5102259 170.53252716 -170.71875 172.3046875 C-170.84636719 173.36300781 -170.97398437 174.42132812 -171.10546875 175.51171875 C-171.23566406 176.62160156 -171.36585938 177.73148438 -171.5 178.875 C-171.75813085 181.06016707 -172.01845954 183.24507591 -172.28125 185.4296875 C-172.39533203 186.40147949 -172.50941406 187.37327148 -172.62695312 188.37451172 C-173 191 -173 191 -173.54882812 193.14111328 C-174.13625342 195.21785001 -174.13625342 195.21785001 -173.9375 198.3125 C-174 202 -174 202 -174.9375 205.25 C-175.81606388 208.35081371 -176.21022409 210.76984202 -176.4375 213.9375 C-176.79785773 218.70077398 -177.57189348 223.31980943 -178.5 228 C-179.61948928 233.64551033 -180.42442819 239.21360626 -180.7890625 244.9609375 C-181 247 -181 247 -182 249 C-182.20495188 251.16338091 -182.36564275 253.33109005 -182.5 255.5 C-182.88888889 261.77777778 -182.88888889 261.77777778 -184 264 C-184.20835186 266.01696174 -184.36747589 268.03914079 -184.5 270.0625 C-185.10313567 278.47856229 -185.10313567 278.47856229 -185.4375 281.875 C-185.49808594 282.51179688 -185.55867188 283.14859375 -185.62109375 283.8046875 C-186 286 -186 286 -186.9375 288.92578125 C-188.60392511 294.57365611 -188.95620083 300.47727149 -189.5625 306.3125 C-189.81040221 308.66312146 -190.06153609 311.01340509 -190.31640625 313.36328125 C-190.42412354 314.39751221 -190.53184082 315.43174316 -190.64282227 316.49731445 C-191 319 -191 319 -192 321 C-192.20466634 322.97559868 -192.36549059 324.95588811 -192.5 326.9375 C-192.7240646 330.23044938 -192.95387694 332.86163082 -194 336 C-194.30239035 338.86430864 -194.50765769 341.72919934 -194.71875 344.6015625 C-195 347 -195 347 -196 348 C-196.20931897 350.16296273 -196.36797069 352.3309471 -196.5 354.5 C-196.88888889 360.88888889 -196.88888889 360.88888889 -198 362 C-198.28791054 364.11768754 -198.51597824 366.24356546 -198.71875 368.37109375 C-198.84636719 369.66724609 -198.97398437 370.96339844 -199.10546875 372.29882812 C-199.23744352 373.67834107 -199.36894843 375.05789904 -199.5 376.4375 C-199.75587544 379.12419216 -200.01706243 381.81018681 -200.28125 384.49609375 C-200.39533203 385.69419678 -200.50941406 386.8922998 -200.62695312 388.12670898 C-201 391 -201 391 -202 393 C-202.18403 394.7672722 -202.32242478 396.53940222 -202.4375 398.3125 C-203.00337772 405.7677144 -203.92742191 413.2214797 -205.56640625 420.5234375 C-206.21374633 424.22085743 -205.96632695 427.83537542 -205.83984375 431.57421875 C-206 434 -206 434 -208 436 C-208.39354302 438.45291361 -208.39354302 438.45291361 -208.5 441.3125 C-209.65034965 458.3006993 -209.65034965 458.3006993 -212 463 C-212.26691959 464.6830712 -212.48725336 466.37364956 -212.68359375 468.06640625 C-212.80557129 469.1020874 -212.92754883 470.13776855 -213.05322266 471.20483398 C-213.18003418 472.31286377 -213.3068457 473.42089355 -213.4375 474.5625 C-213.56946777 475.685354 -213.70143555 476.80820801 -213.83740234 477.96508789 C-214.43942817 483.0977064 -215.02756611 488.23180142 -215.60546875 493.3671875 C-215.73900757 494.53979126 -215.73900757 494.53979126 -215.87524414 495.73608398 C-216.03823016 497.17268701 -216.19773443 498.60969056 -216.35327148 500.04711914 C-216.88860599 504.77721198 -216.88860599 504.77721198 -218 507 C-218.15881605 508.72638924 -218.27689227 510.4565993 -218.375 512.1875 C-218.73201291 517.0129326 -219.47482365 521.58474498 -220.5 526.3125 C-221.89364334 532.87480117 -222.49031931 539.17642459 -222.7890625 545.85546875 C-222.96187315 548.43162745 -223.31565936 550.53637371 -224 553 C-224.18677707 554.35153966 -224.35363274 555.70598912 -224.5 557.0625 C-225 561 -225 561 -226 564 C-226.22148329 565.66249186 -226.40595079 567.33014181 -226.5625 569 C-226.64628906 569.86625 -226.73007812 570.7325 -226.81640625 571.625 C-227.03853635 574.10149848 -227.03853635 574.10149848 -227 577 C-227.33 577.33 -227.66 577.66 -228 578 C-228.3931648 579.67884238 -228.74085452 581.36850045 -229.0625 583.0625 C-229.23910156 583.98160156 -229.41570312 584.90070312 -229.59765625 585.84765625 C-229.73042969 586.55792969 -229.86320312 587.26820313 -230 588 C-230.33 588 -230.66 588 -231 588 C-230.38640347 575.81273159 -228.72548478 563.81817782 -227.04296875 551.7421875 C-226.74106797 549.55157734 -226.43952762 547.36091749 -226.13832092 545.17021179 C-225.3292326 539.29537929 -224.51414687 533.42139395 -223.69758606 527.54759598 C-223.18317128 523.84383341 -222.6704584 520.13983919 -222.1583252 516.4357605 C-217.23175001 480.80405542 -212.21327823 445.18626177 -207.09886169 409.58108521 C-206.9131149 408.28795095 -206.9131149 408.28795095 -206.72361565 406.96869278 C-206.46944353 405.19924727 -206.21524847 403.42980505 -205.96103096 401.66036606 C-202.06221764 374.51729895 -198.21543568 347.36680681 -194.36568069 320.21674728 C-193.85365308 316.60578425 -193.3414623 312.99484437 -192.82922167 309.38391155 C-188.364113 277.9076412 -183.91243545 246.42956191 -179.50390625 214.9453125 C-179.32457172 213.66501034 -179.1452372 212.38470818 -178.96046829 211.06560898 C-177.26646821 198.97170269 -175.5737178 186.87762742 -173.88824272 174.78252983 C-170.55072127 150.84154386 -167.1371994 126.91317818 -163.60546875 103 C-163.34311652 101.21807251 -163.34311652 101.21807251 -163.07546425 99.40014648 C-162.58280503 96.05808477 -162.08724901 92.71646732 -161.59057617 89.375 C-161.44398497 88.3797229 -161.29739376 87.3844458 -161.1463604 86.35900879 C-161.00957438 85.44389526 -160.87278835 84.52878174 -160.7318573 83.5859375 C-160.61401477 82.7923584 -160.49617224 81.9987793 -160.37475872 81.18115234 C-160.01733721 79.10090517 -159.51192706 77.04770826 -159 75 C-107.19 75 -55.38 75 -2 75 C-2 55.2 -2 35.4 -2 15 C-1.34 10.05 -0.68 5.1 0 0 Z " fill="#23205D" transform="translate(606,386)"/>
<path d="M0 0 C0.99 0.495 0.99 0.495 2 1 C2.75978313 37.41259405 3.14524409 73.80231879 3.10139394 110.22314572 C3.09495912 116.51692153 3.09454127 122.81069834 3.09336853 129.10447693 C3.09031251 140.91734999 3.08218013 152.73021332 3.07201904 164.54308218 C3.06408233 173.98355502 3.05861179 183.42402652 3.05493164 192.86450195 C3.05466892 193.5365357 3.05440619 194.20856944 3.05413551 194.90096784 C3.05282976 198.27487806 3.05156623 201.64878828 3.05032361 205.02269852 C3.04008282 232.68180431 3.02250671 260.34090166 3 288 C2.01 288 1.02 288 0 288 C0 192.96 0 97.92 0 0 Z " fill="#0A83D1" transform="translate(763,823)"/>
<path d="M0 0 C0.33 0 0.66 0 1 0 C1.99853875 4.79298598 1.94481603 7.82992251 0.54296875 12.609375 C-0.40069935 16.76423025 -0.51263731 20.99782364 -0.75390625 25.2421875 C-1 28 -1 28 -2 30 C-2.03052942 32.5034121 -1.93318882 34.99053963 -1.83984375 37.4921875 C-2.01377525 40.21570027 -2.76514664 41.60513287 -4 44 C-4.41465179 46.5184988 -4.41465179 46.5184988 -4.5625 49.125 C-4.90277778 53.80555556 -4.90277778 53.80555556 -6 56 C101.58 56 209.16 56 320 56 C320 56.33 320 56.66 320 57 C212.09 57 104.18 57 -7 57 C-5.85072802 39.76092023 -5.85072802 39.76092023 -4.58984375 31.34765625 C-4.45808243 30.43664658 -4.32632111 29.5256369 -4.19056702 28.58702087 C-3.7782447 25.74470003 -3.3580555 22.90361296 -2.9375 20.0625 C-2.65246663 18.10749881 -2.36795792 16.15242104 -2.08398438 14.19726562 C-1.39535507 9.46394119 -0.69968018 4.73170297 0 0 Z " fill="#271E58" transform="translate(334,1257)"/>
<path d="M0 0 C0.33 0 0.66 0 1 0 C1.09950874 9.15480413 1.02928014 18.2371632 0.4375 27.375 C-0.23060042 38.20388491 0.26574915 48.96798633 0.74609375 59.796875 C0.83281451 61.86449692 0.91765697 63.93219911 1 66 C1.03496582 66.83595703 1.06993164 67.67191406 1.10595703 68.53320312 C1.15146702 70.35524272 1.08843472 72.17953887 1 74 C-1 76 -1 76 -3.69802284 76.24609566 C-4.85395124 76.24425207 -6.00987965 76.24240849 -7.20083618 76.24050903 C-7.84366275 76.24221788 -8.48648932 76.24392673 -9.14879549 76.24568737 C-11.3123622 76.24899328 -13.4756218 76.23796078 -15.63916016 76.22705078 C-17.18623345 76.2264869 -18.73330727 76.22680277 -20.28038025 76.22793579 C-24.48885185 76.22851122 -28.69721018 76.21672621 -32.90565538 76.20278788 C-37.30057233 76.19031215 -41.69549167 76.18911252 -46.09042358 76.18673706 C-54.41667602 76.18051298 -62.74287614 76.16408965 -71.06910551 76.14403808 C-80.54659421 76.1217079 -90.02408538 76.11069291 -99.50159383 76.10064721 C-119.00109225 76.0797242 -138.50054192 76.04453024 -158 76 C-158.33 76.99 -158.66 77.98 -159 79 C-159 77.68 -159 76.36 -159 75 C-107.19 75 -55.38 75 -2 75 C-2 55.2 -2 35.4 -2 15 C-1.34 10.05 -0.68 5.1 0 0 Z " fill="#212566" transform="translate(606,386)"/>
<path d="M0 0 C36.63 0 73.26 0 111 0 C111 0.33 111 0.66 111 1 C57.54 1.495 57.54 1.495 3 2 C2.67 26.09 2.34 50.18 2 75 C9.26 75 16.52 75 24 75 C24 75.33 24 75.66 24 76 C20.18751574 76.02887236 16.3750593 76.04675492 12.5625 76.0625 C11.47388672 76.07087891 10.38527344 76.07925781 9.26367188 76.08789062 C8.22919922 76.09111328 7.19472656 76.09433594 6.12890625 76.09765625 C5.17056885 76.10289307 4.21223145 76.10812988 3.22485352 76.11352539 C1 76 1 76 0 75 C-0.09492895 72.65741937 -0.12558483 70.34457881 -0.11352539 68.00170898 C-0.11364593 67.25817452 -0.11376646 66.51464006 -0.11389065 65.74857426 C-0.11314159 63.33105079 -0.10551371 60.9136035 -0.09765625 58.49609375 C-0.09618681 57.00785357 -0.09516611 55.51961287 -0.09460449 54.03137207 C-0.08935187 48.50007352 -0.07539078 42.96878602 -0.0625 37.4375 C-0.041875 25.083125 -0.02125 12.72875 0 0 Z " fill="#212E71" transform="translate(583,746)"/>
<path d="M0 0 C37.62 0 75.24 0 114 0 C111 3 111 3 109.07167053 3.24977112 C108.3236467 3.19256393 107.57562286 3.13535675 106.80493164 3.07641602 C105.47418861 2.99459328 105.47418861 2.99459328 104.11656189 2.91111755 C103.12032303 2.83861282 102.12408417 2.76610809 101.09765625 2.69140625 C88.97136074 2.01177342 76.8881885 1.88909998 64.74609375 1.90234375 C63.33574293 1.90304808 63.33574293 1.90304808 61.89690018 1.90376663 C56.07026741 1.90713937 50.24367058 1.91797137 44.41705322 1.93133545 C39.3945763 1.94172671 34.37209404 1.94616627 29.34960938 1.95117188 C19.56639264 1.96176662 9.78319899 1.97874087 0 2 C0 1.34 0 0.68 0 0 Z " fill="#0B8CD5" transform="translate(826,461)"/>
<path d="M0 0 C2.475 0.99 2.475 0.99 5 2 C4.01 2.33 3.02 2.66 2 3 C2 32.7 2 62.4 2 93 C1.34 93 0.68 93 0 93 C0 62.31 0 31.62 0 0 Z " fill="#12BFFA" transform="translate(1023,851)"/>
<path d="M0 0 C0.33 0 0.66 0 1 0 C1.02685095 2.47923801 1.04676547 4.9581884 1.0625 7.4375 C1.07087891 8.14455078 1.07925781 8.85160156 1.08789062 9.58007812 C1.09653588 11.38693559 1.05220011 13.19387603 1 15 C0.67 15.33 0.34 15.66 0 16 C-0.03192832 18.71846878 0.06836852 21.42370823 0.16015625 24.140625 C-0.01145701 27.20454963 -0.86225204 29.1728687 -2 32 C-2.25778944 34.24303385 -2.44262796 36.49538541 -2.5625 38.75 C-2.90035587 44.90035587 -2.90035587 44.90035587 -4 46 C-5.62982557 53.38514713 -6.31110006 60.84607048 -6.75390625 68.3828125 C-7 71 -7 71 -8 73 C-8.20329268 74.82963411 -8.36472196 76.66408368 -8.5 78.5 C-8.88888889 83.77777778 -8.88888889 83.77777778 -10 86 C-10.31583446 89.37328752 -10.51133762 92.74734365 -10.71875 96.12890625 C-11 99 -11 99 -12 100 C-12.28318854 102.84087552 -12.44850213 105.68165215 -12.62109375 108.53125 C-12.74613281 109.3459375 -12.87117188 110.160625 -13 111 C-13.99 111.495 -13.99 111.495 -15 112 C-14.41032795 99.61630198 -12.62191281 87.45164515 -10.83984375 75.1953125 C-10.52695877 73.01819948 -10.21451192 70.84102345 -9.90248108 68.66378784 C-9.08649865 62.97843082 -8.26463023 57.29394034 -7.44146729 51.60961914 C-6.59994909 45.79104619 -5.76409123 39.97166041 -4.92773438 34.15234375 C-3.29064602 22.76743373 -1.64732854 11.38343251 0 0 Z " fill="#231E59" transform="translate(374,974)"/>
<path d="M0 0 C1.98 0 3.96 0 6 0 C6 0.66 6 1.32 6 2 C7.299375 1.979375 8.59875 1.95875 9.9375 1.9375 C11.29165633 1.91600546 12.64756083 1.92851801 14 2 C14.33 2.33 14.66 2.66 15 3 C17.32817964 3.36760731 19.6618385 3.70241581 22 4 C22 4.66 22 5.32 22 6 C23.299375 5.979375 24.59875 5.95875 25.9375 5.9375 C27.29165633 5.91600546 28.64756083 5.92851801 30 6 C30.33 6.33 30.66 6.66 31 7 C33.32558446 7.53488443 35.66076527 8.0283801 38 8.5 C44.88888889 9.88888889 44.88888889 9.88888889 46 11 C47.34747084 11.23075082 48.70377565 11.41153063 50.0625 11.5625 C51.361875 11.706875 52.66125 11.85125 54 12 C54 12.66 54 13.32 54 14 C55.98 13.67 57.96 13.34 60 13 C59.67 13.99 59.34 14.98 59 16 C51.77003235 15.17841277 44.29687207 13.78062379 37.55859375 10.98828125 C34.46617579 9.79380531 31.44759031 9.22545 28.1875 8.625 C22.49542301 7.54222145 16.86870642 6.29046323 11.25 4.875 C10.57090576 4.70436035 9.89181152 4.5337207 9.19213867 4.35791016 C6.4246758 3.65298044 3.7104254 2.90347513 1 2 C1.28875 2.61875 1.5775 3.2375 1.875 3.875 C3.85173838 9.36593995 5.86225725 15.28115326 4 21 C0.42229302 14.32562227 -0.27166506 7.47078902 0 0 Z " fill="#414A7E" transform="translate(713,515)"/>
<path d="M0 0 C0.33 0 0.66 0 1 0 C1.02750071 2.75007076 1.04707451 5.49985467 1.0625 8.25 C1.07087891 9.00796875 1.07925781 9.7659375 1.08789062 10.546875 C1.10559319 14.79549142 0.94079625 18.95819885 0.53125 23.1875 C-0.35349029 33.01306301 -0.36891048 42.89194759 -0.5625 52.75 C-0.60577981 54.81511132 -0.6493968 56.8802156 -0.69335938 58.9453125 C-0.79946186 63.96346895 -0.90099647 68.98169868 -1 74 C-1.33 74 -1.66 74 -2 74 C-2.04677224 66.56644908 -2.08209343 59.13291382 -2.10362434 51.69924831 C-2.11396899 48.24581566 -2.1279528 44.7924852 -2.15087891 41.33911133 C-2.17719111 37.34976337 -2.18654957 33.36051918 -2.1953125 29.37109375 C-2.20563507 28.15796005 -2.21595764 26.94482635 -2.22659302 25.69493103 C-2.22771133 16.95871013 -1.33693607 8.61836305 0 0 Z " fill="#213079" transform="translate(606,386)"/>
<path d="M0 0 C0.33 0 0.66 0 1 0 C1.02715383 1.74991334 1.04646551 3.49994945 1.0625 5.25 C1.07410156 6.22453125 1.08570313 7.1990625 1.09765625 8.203125 C1.01097746 10.68560568 0.66040511 12.62743351 0 15 C-0.18677707 16.35153966 -0.35363274 17.70598912 -0.5 19.0625 C-1 23 -1 23 -2 26 C-2.22148329 27.66249186 -2.40595079 29.33014181 -2.5625 31 C-2.64628906 31.86625 -2.73007812 32.7325 -2.81640625 33.625 C-3.03853635 36.10149848 -3.03853635 36.10149848 -3 39 C-3.495 39.495 -3.495 39.495 -4 40 C-4.3931648 41.67884238 -4.74085452 43.36850045 -5.0625 45.0625 C-5.23910156 45.98160156 -5.41570312 46.90070312 -5.59765625 47.84765625 C-5.73042969 48.55792969 -5.86320312 49.26820313 -6 50 C-6.33 50 -6.66 50 -7 50 C-6.42288128 40.27877663 -5.41728928 30.70718951 -4.0625 21.0625 C-3.89298828 19.80115234 -3.72347656 18.53980469 -3.54882812 17.24023438 C-2.73085328 11.34024091 -1.88091022 5.65959981 0 0 Z " fill="#231E57" transform="translate(382,924)"/>
<path d="M0 0 C1.91789713 0.28346278 3.83429183 0.5771028 5.75 0.875 C7.35101562 1.11863281 7.35101562 1.11863281 8.984375 1.3671875 C11.72197701 1.94165839 13.55390946 2.72443131 16 4 C19.30004965 4.84574137 22.64842711 5.39578732 26 6 C27.27875 6.28875 28.5575 6.5775 29.875 6.875 C33.11049379 7.34508626 33.11049379 7.34508626 35.4375 5.0625 C35.953125 4.381875 36.46875 3.70125 37 3 C36.34 5.31 35.68 7.62 35 10 C29.96870511 10.31445593 26.60977744 9.64362167 21.97265625 7.72265625 C19.78376295 6.84242512 19.78376295 6.84242512 16.4375 6.5 C12.55072912 5.93465151 9.56582802 4.62083092 6 3 C4.00736409 2.31163487 2.00958663 1.63718601 0 1 C0 0.67 0 0.34 0 0 Z " fill="#C06477" transform="translate(739,523)"/>
<path d="M0 0 C-29.36820835 9.09443906 -29.36820835 9.09443906 -37 7 C-37 6.01 -37 5.02 -37 4 C-36.67 4.33 -36.34 4.66 -36 5 C-30.3535832 5.60663982 -26.7664034 5.17760227 -22 2 C-15.09300403 -0.10721911 -7.07857646 -2.15929053 0 0 Z " fill="#4E7BA5" transform="translate(870,523)"/>
<path d="M0 0 C1.99954746 -0.04254356 4.00041636 -0.04080783 6 0 C6.33 0.33 6.66 0.66 7 1 C9.32558446 1.53488443 11.66076527 2.0283801 14 2.5 C20.88888889 3.88888889 20.88888889 3.88888889 22 5 C23.34747084 5.23075082 24.70377565 5.41153063 26.0625 5.5625 C27.361875 5.706875 28.66125 5.85125 30 6 C30 6.66 30 7.32 30 8 C31.98 7.67 33.96 7.34 36 7 C35.67 7.99 35.34 8.98 35 10 C27.74064541 9.17507334 20.27039911 7.75212943 13.49609375 4.97265625 C10.73331698 3.89608126 8.10857882 3.36771209 5.1875 2.875 C4.21167969 2.70742188 3.23585938 2.53984375 2.23046875 2.3671875 C1.49441406 2.24601563 0.75835938 2.12484375 0 2 C0 1.34 0 0.68 0 0 Z " fill="#3B578C" transform="translate(737,521)"/>
<path d="M0 0 C0.33 0 0.66 0 1 0 C1.02685412 2.31243792 1.04632841 4.6249627 1.0625 6.9375 C1.07410156 8.22527344 1.08570313 9.51304688 1.09765625 10.83984375 C1 14 1 14 0 15 C-0.40602589 17.37688151 -0.7546484 19.73515942 -1.0625 22.125 C-1.23910156 23.42695312 -1.41570312 24.72890625 -1.59765625 26.0703125 C-2.06480331 29.96791211 -2.06480331 29.96791211 -1.99609375 33.77734375 C-2.00030521 37.25179851 -2.74400734 39.78151881 -4 43 C-4.33 43 -4.66 43 -5 43 C-4.42719444 33.12173384 -3.34883183 23.41954313 -1.9375 13.625 C-1.74891224 12.29172837 -1.56075942 10.95839514 -1.37304688 9.625 C-0.91960671 6.41603885 -0.46187325 3.20775624 0 0 Z " fill="#241E55" transform="translate(358,1087)"/>
<path d="M0 0 C3.33582043 0.65462864 6.66854419 1.32351523 10 2 C10.83402344 2.16757812 11.66804687 2.33515625 12.52734375 2.5078125 C13.68943359 2.75144531 13.68943359 2.75144531 14.875 3 C15.57367187 3.144375 16.27234375 3.28875 16.9921875 3.4375 C19.16605179 4.04652035 21.01582886 4.93228459 23 6 C20.36 6 17.72 6 15 6 C15 5.34 15 4.68 15 4 C13.7625 4.04125 12.525 4.0825 11.25 4.125 C7.98362038 4.13658291 5.7853053 3.8568702 3 2 C3 4.64 3 7.28 3 10 C3.66 10 4.32 10 5 10 C5 12.97 5 15.94 5 19 C3.03339633 15.06679266 2.16464517 11.5124724 1.375 7.25 C1.2409375 6.55261719 1.106875 5.85523438 0.96875 5.13671875 C0.64056736 3.42548068 0.31956498 1.71286829 0 0 Z " fill="#CD6678" transform="translate(714,517)"/>
<path d="M0 0 C0.21133202 7.04440079 0.07965362 13.24112575 -2 20 C-2.99 20 -3.98 20 -5 20 C-4.41312597 13.66176048 -2.93804094 8.06691078 -1 2 C-4.63 2.66 -8.26 3.32 -12 4 C-7.59635087 0.69726315 -5.34893602 0 0 0 Z " fill="#4D88B4" transform="translate(893,516)"/>
<path d="M0 0 C10.56 0 21.12 0 32 0 C29 3 29 3 26.42797852 3.28051758 C25.42178467 3.23564209 24.41559082 3.1907666 23.37890625 3.14453125 C21.72858398 3.07588867 21.72858398 3.07588867 20.04492188 3.00585938 C18.89572266 2.94205078 17.74652344 2.87824219 16.5625 2.8125 C15.41716797 2.76802734 14.27183594 2.72355469 13.09179688 2.67773438 C4.54532967 2.27266484 4.54532967 2.27266484 0 0 Z " fill="#0CA3E7" transform="translate(908,461)"/>
<path d="M0 0 C0.66 0.33 1.32 0.66 2 1 C-3.94 6.94 -9.88 12.88 -16 19 C-16 14.80130728 -14.19810866 13.66463027 -11.375 10.625 C-10.9207666 10.13475342 -10.4665332 9.64450684 -9.99853516 9.1394043 C-6.85830473 5.79321137 -3.64356736 2.78061719 0 0 Z " fill="#253376" transform="translate(644,324)"/>
<path d="M0 0 C0.66 0 1.32 0 2 0 C3.98046875 2.484375 3.98046875 2.484375 6.1875 5.75 C6.92355469 6.81734375 7.65960937 7.8846875 8.41796875 8.984375 C10 12 10 12 9.73828125 14.390625 C9.49464844 14.92171875 9.25101563 15.4528125 9 16 C7.49445366 13.71180854 5.99542957 11.41978831 4.5 9.125 C4.07074219 8.47402344 3.64148438 7.82304688 3.19921875 7.15234375 C0 2.2265625 0 2.2265625 0 0 Z " fill="#A26D84" transform="translate(818,506)"/>
<path d="M0 0 C0.33 0 0.66 0 1 0 C0.88482579 2.35500948 0.75812022 4.70849073 0.625 7.0625 C0.55539062 8.37347656 0.48578125 9.68445313 0.4140625 11.03515625 C0.00194564 14.98136957 -0.79756567 18.24117073 -2 22 C-2.66 22 -3.32 22 -4 22 C-3.25403037 14.5403037 -1.63253871 7.31048782 0 0 Z " fill="#BF6183" transform="translate(727,637)"/>
<path d="M0 0 C0.33 0 0.66 0 1 0 C0.86116581 3.43782031 0.71272946 6.87516029 0.5625 10.3125 C0.50352539 11.77719727 0.50352539 11.77719727 0.44335938 13.27148438 C0.40146484 14.20927734 0.35957031 15.14707031 0.31640625 16.11328125 C0.27974854 16.97735596 0.24309082 17.84143066 0.20532227 18.73168945 C0 21 0 21 -1 24 C-1.66 24 -2.32 24 -3 24 C-2.68860949 21.31236733 -2.37591843 18.62489631 -2.0625 15.9375 C-1.97548828 15.18533203 -1.88847656 14.43316406 -1.79882812 13.65820312 C-1.26536361 9.09411781 -0.67013702 4.54606466 0 0 Z " fill="#1F266A" transform="translate(441,499)"/>
<path d="M0 0 C3.41037083 2.23438089 5.08458668 4.41900989 7 8 C7.5775 9.051875 8.155 10.10375 8.75 11.1875 C9.1625 12.115625 9.575 13.04375 10 14 C9.67 14.66 9.34 15.32 9 16 C8.34 15.67 7.68 15.34 7 15 C7 13.68 7 12.36 7 11 C6.34 11 5.68 11 5 11 C4.35165346 9.730447 3.70642185 8.45930294 3.0625 7.1875 C2.70285156 6.47980469 2.34320312 5.77210938 1.97265625 5.04296875 C1 3 1 3 0 0 Z " fill="#B46C81" transform="translate(808,490)"/>
<path d="M0 0 C0.33 0 0.66 0 1 0 C1.22304441 1.74818591 1.4278645 3.49870323 1.625 5.25 C1.74101562 6.22453125 1.85703125 7.1990625 1.9765625 8.203125 C2.00164203 11.19594915 1.46559806 12.45675631 0 15 C-0.38290462 16.99110401 -0.72604615 18.99100513 -1 21 C-1.33 21 -1.66 21 -2 21 C-1.03644647 6.21867882 -1.03644647 6.21867882 0 0 Z " fill="#1C276C" transform="translate(403,767)"/>
<path d="M0 0 C-1.25830363 3.77491089 -2.96830161 5.46183391 -6 8 C-8.3125 7.8125 -8.3125 7.8125 -10 7 C-10 6.34 -10 5.68 -10 5 C-8.3203125 3.7109375 -8.3203125 3.7109375 -6.125 2.375 C-5.40570312 1.92898438 -4.68640625 1.48296875 -3.9453125 1.0234375 C-2 0 -2 0 0 0 Z " fill="#E56271" transform="translate(689,600)"/>
<path d="M0 0 C0.33 0 0.66 0 1 0 C1.0809723 2.43816585 1.14046972 4.87364384 1.1875 7.3125 C1.22520508 8.34793945 1.22520508 8.34793945 1.26367188 9.40429688 C1.29296875 11.42578125 1.29296875 11.42578125 1 15 C0.01 15.99 -0.98 16.98 -2 18 C-1.34 12.06 -0.68 6.12 0 0 Z " fill="#1F276B" transform="translate(446,465)"/>
<path d="M0 0 C0.825 0.185625 1.65 0.37125 2.5 0.5625 C6.61926719 1.0774084 9.90823355 0.63492928 14 0 C14 0.66 14 1.32 14 2 C12.02 2 10.04 2 8 2 C8 2.66 8 3.32 8 4 C6.02 4 4.04 4 2 4 C1.34 2.68 0.68 1.36 0 0 Z " fill="#D26975" transform="translate(832,529)"/>
<path d="M0 0 C0.33 0.66 0.66 1.32 1 2 C0.0625 4.625 0.0625 4.625 -1 7 C-3.31 7 -5.62 7 -8 7 C-8.33 6.34 -8.66 5.68 -9 5 C-8.071875 4.9175 -7.14375 4.835 -6.1875 4.75 C-2.91490121 4.29742448 -2.91490121 4.29742448 -1.125 1.9375 C-0.75375 1.298125 -0.3825 0.65875 0 0 Z " fill="#D06472" transform="translate(775,526)"/>
<path d="M0 0 C0.33 0.66 0.66 1.32 1 2 C-0.25 5.5625 -0.25 5.5625 -2 9 C-2.99 9.33 -3.98 9.66 -5 10 C-4.125 5.25 -4.125 5.25 -3 3 C-2.34 3 -1.68 3 -1 3 C-0.67 2.01 -0.34 1.02 0 0 Z " fill="#B8697D" transform="translate(791,500)"/>
<path d="M0 0 C0.33 0 0.66 0 1 0 C1.24900646 1.93505023 1.47356242 3.87325934 1.6875 5.8125 C1.87892578 7.43091797 1.87892578 7.43091797 2.07421875 9.08203125 C2 12 2 12 0.51953125 13.88671875 C0.01808594 14.25410156 -0.48335938 14.62148437 -1 15 C-1.09038099 9.84828377 -0.84681133 5.08086796 0 0 Z " fill="#251B51" transform="translate(350,1144)"/>
<path d="M0 0 C6.93 0.495 6.93 0.495 14 1 C14 1.66 14 2.32 14 3 C14.66 3.33 15.32 3.66 16 4 C10.63486869 3.152874 5.3212615 2.08318169 0 1 C0 0.67 0 0.34 0 0 Z " fill="#505083" transform="translate(721,518)"/>
<path d="M0 0 C0 3.63195496 -0.95453155 4.74713911 -3 7.6875 C-3.556875 8.49574219 -4.11375 9.30398438 -4.6875 10.13671875 C-5.120625 10.75160156 -5.55375 11.36648438 -6 12 C-6 9 -6 9 -4 6 C-3.61500109 4.34450469 -3.27206865 2.6777567 -3 1 C-2.01 0.67 -1.02 0.34 0 0 Z " fill="#476090" transform="translate(780,516)"/>
<path d="M0 0 C0 0.66 0 1.32 0 2 C-0.99 2 -1.98 2 -3 2 C-3 2.66 -3 3.32 -3 4 C-6 6 -6 6 -8.1875 5.625 C-8.785625 5.41875 -9.38375 5.2125 -10 5 C-8.71186658 4.16121545 -7.41936744 3.32913217 -6.125 2.5 C-5.40570312 2.0359375 -4.68640625 1.571875 -3.9453125 1.09375 C-2 0 -2 0 0 0 Z " fill="#D8657E" transform="translate(710,587)"/>
</svg>
